<svg xmlns="http://www.w3.org/2000/svg" viewBox="0 0 760 440" role="img" aria-label="EZ Admin admin base preview">
  <defs>
    <linearGradient id="brand" x1="64" y1="42" x2="640" y2="386" gradientUnits="userSpaceOnUse">
      <stop stop-color="#079aa2"/>
      <stop offset="0.55" stop-color="#16b7b7"/>
      <stop offset="1" stop-color="#39b98f"/>
    </linearGradient>
    <linearGradient id="surface" x1="82" y1="56" x2="682" y2="396" gradientUnits="userSpaceOnUse">
      <stop stop-color="#ffffff"/>
      <stop offset="1" stop-color="#f6fcfb"/>
    </linearGradient>
    <filter id="shadow" x="30" y="24" width="700" height="386" filterUnits="userSpaceOnUse" color-interpolation-filters="sRGB">
      <feDropShadow dx="0" dy="18" stdDeviation="24" flood-color="#064e52" flood-opacity="0.13"/>
    </filter>
  </defs>

  <rect x="54" y="38" width="652" height="360" rx="30" fill="url(#surface)" stroke="#d8eeee" filter="url(#shadow)"/>

  <g fill="none" stroke="url(#brand)" stroke-linecap="round" stroke-linejoin="round">
    <path d="M112 88h58"/>
    <path d="M112 88c-17 0-26 9-26 26v46c0 17 9 26 26 26h60"/>
    <path d="M88 137h70"/>
    <path d="M212 88h72c11 0 16 13 8 21l-80 77h88"/>
  </g>

  <text x="86" y="240" fill="#0f172a" font-family="Inter, Arial, sans-serif" font-size="26" font-weight="700">EZ Admin</text>
  <text x="86" y="272" fill="#64748b" font-family="Inter, Arial, sans-serif" font-size="15">easy to use &amp; develop</text>
  <line x1="86" y1="296" x2="308" y2="296" stroke="#079aa2" stroke-width="3" stroke-linecap="round"/>

  <g transform="translate(350 78)">
    <rect width="280" height="226" rx="18" fill="#ffffff" stroke="#d8eeee"/>
    <rect x="20" y="22" width="120" height="14" rx="7" fill="#079aa2" opacity="0.95"/>
    <rect x="20" y="48" width="76" height="8" rx="4" fill="#94a3b8" opacity="0.55"/>
    <rect x="206" y="22" width="38" height="38" rx="12" fill="#e6fffb"/>
    <path d="M216 41h18M225 32v18" stroke="#079aa2" stroke-width="4" stroke-linecap="round"/>

    <g transform="translate(20 82)">
      <rect width="72" height="54" rx="12" fill="#f0fdfa" stroke="#b7eeee"/>
      <text x="18" y="32" fill="#079aa2" font-family="Inter, Arial, sans-serif" font-size="13" font-weight="700">Auth</text>
    </g>
    <g transform="translate(104 82)">
      <rect width="72" height="54" rx="12" fill="#f8fafc" stroke="#e2e8f0"/>
      <text x="17" y="32" fill="#334155" font-family="Inter, Arial, sans-serif" font-size="13" font-weight="700">RBAC</text>
    </g>
    <g transform="translate(188 82)">
      <rect width="72" height="54" rx="12" fill="#f8fafc" stroke="#e2e8f0"/>
      <text x="15" y="32" fill="#334155" font-family="Inter, Arial, sans-serif" font-size="13" font-weight="700">Menu</text>
    </g>

    <g transform="translate(20 154)">
      <rect width="240" height="14" rx="7" fill="#e2e8f0"/>
      <rect width="168" height="14" rx="7" fill="#079aa2" opacity="0.84"/>
      <rect y="30" width="240" height="14" rx="7" fill="#e2e8f0"/>
      <rect y="30" width="198" height="14" rx="7" fill="#39b98f" opacity="0.84"/>
    </g>
  </g>

  <g transform="translate(96 334)">
    <rect width="112" height="36" rx="18" fill="#ecfeff" stroke="#b7eeee"/>
    <text x="29" y="23" fill="#079aa2" font-family="Inter, Arial, sans-serif" font-size="13" font-weight="700">server</text>
  </g>
  <g transform="translate(224 334)">
    <rect width="112" height="36" rx="18" fill="#f8fafc" stroke="#e2e8f0"/>
    <text x="39" y="23" fill="#334155" font-family="Inter, Arial, sans-serif" font-size="13" font-weight="700">web</text>
  </g>
  <g transform="translate(352 334)">
    <rect width="112" height="36" rx="18" fill="#f8fafc" stroke="#e2e8f0"/>
    <text x="39" y="23" fill="#334155" font-family="Inter, Arial, sans-serif" font-size="13" font-weight="700">docs</text>
  </g>
  <g transform="translate(480 334)">
    <rect width="112" height="36" rx="18" fill="#f8fafc" stroke="#e2e8f0"/>
    <text x="34" y="23" fill="#334155" font-family="Inter, Arial, sans-serif" font-size="13" font-weight="700">deploy</text>
  </g>
</svg>
